<svg width="40" height="41" viewBox="0 0 40 41" fill="none" xmlns="http://www.w3.org/2000/svg">
<path d="M0 20.5C0 9.45431 8.95431 0.5 20 0.5C31.0457 0.5 40 9.45431 40 20.5C40 31.5457 31.0457 40.5 20 40.5C8.95431 40.5 0 31.5457 0 20.5Z" fill="white" fill-opacity="0.06"/>
<path d="M27.5 14.875H12.5C12.1548 14.875 11.875 15.1548 11.875 15.5V25.5C11.875 25.8452 12.1548 26.125 12.5 26.125H27.5C27.8452 26.125 28.125 25.8452 28.125 25.5V15.5C28.125 15.1548 27.8452 14.875 27.5 14.875Z" stroke="#7F7F91" stroke-width="1.5" stroke-linecap="round" stroke-linejoin="round"/>
<path d="M23.125 23.625H25.625" stroke="#7F7F91" stroke-width="1.5" stroke-linecap="round" stroke-linejoin="round"/>
<path d="M19.375 23.625H20.625" stroke="#7F7F91" stroke-width="1.5" stroke-linecap="round" stroke-linejoin="round"/>
<path d="M11.875 18H28.125" stroke="#7F7F91" stroke-width="1.5" stroke-linecap="round" stroke-linejoin="round"/>
</svg>
