<svg width="159" height="159" viewBox="0 0 159 159" fill="none" xmlns="http://www.w3.org/2000/svg">
<g id="SearchNotFound">
<path id="Vector" fill-rule="evenodd" clip-rule="evenodd" d="M140.175 82.7012C140.175 91.6794 138.225 100.202 134.727 107.866C134.705 107.908 134.695 107.95 134.674 107.982C133.211 111.173 131.472 114.226 129.49 117.088C127.476 120.003 125.218 122.737 122.738 125.26C121.752 126.267 120.735 127.232 119.675 128.165C118.222 129.447 116.707 130.666 115.138 131.811C110.23 135.383 104.76 138.235 98.888 140.217C96.3016 141.086 93.641 141.786 90.9062 142.305C87.2068 143.005 83.3908 143.376 79.49 143.376C63.3462 143.376 48.6652 137.069 37.8002 126.776C28.7372 118.201 22.3136 106.848 19.8862 94.0856C19.229 90.63 18.8686 87.079 18.8262 83.4432C18.8262 83.1994 18.8262 82.945 18.8262 82.7012C18.8262 72.7372 21.2324 63.335 25.483 55.0352C25.8752 54.272 26.278 53.5194 26.702 52.7668C30.783 45.58 36.295 39.3048 42.8458 34.3334C46.6194 31.4608 50.7534 29.0334 55.1418 27.1042C62.5936 23.8288 70.8298 22.0162 79.5006 22.0162C90.514 22.0162 100.838 24.9524 109.742 30.0828C112.191 31.4926 114.534 33.072 116.749 34.7998C120.597 37.7996 124.084 41.2552 127.105 45.0712C127.646 45.7496 128.165 46.4386 128.674 47.1488C130.243 49.3112 131.663 51.5796 132.935 53.9434C137.557 62.5082 140.175 72.3026 140.175 82.7012Z" fill="#28282F"/>
<path id="Vector_2" fill-rule="evenodd" clip-rule="evenodd" d="M115.667 137.143C115.53 137.206 115.392 137.27 115.243 137.334C115.106 137.397 114.957 137.461 114.819 137.524C114.682 137.588 114.533 137.652 114.396 137.705C114.268 137.758 114.131 137.811 114.003 137.864C113.685 137.991 113.357 138.118 113.039 138.245C112.922 138.288 112.806 138.33 112.678 138.372C112.53 138.425 112.392 138.478 112.244 138.521C112.117 138.563 111.979 138.606 111.841 138.659C111.799 138.669 111.767 138.68 111.724 138.69C111.608 138.733 111.48 138.765 111.364 138.807C111.215 138.849 111.067 138.892 110.929 138.945C110.781 138.987 110.633 139.03 110.484 139.072C110.368 139.104 110.251 139.136 110.124 139.167C110.071 139.178 110.018 139.199 109.954 139.21C109.869 139.231 109.774 139.252 109.689 139.273C109.636 139.284 109.583 139.295 109.541 139.316C109.265 139.39 108.99 139.454 108.703 139.517C108.576 139.549 108.46 139.57 108.332 139.602C108.29 139.613 108.237 139.623 108.195 139.634C108.067 139.655 107.94 139.687 107.813 139.708C107.664 139.74 107.516 139.761 107.368 139.793C107.219 139.814 107.071 139.846 106.933 139.867C106.764 139.899 106.583 139.92 106.414 139.952C106.297 139.973 106.181 139.984 106.075 140.005C105.788 140.047 105.502 140.079 105.216 140.111C105.152 140.121 105.078 140.121 105.015 140.132C104.909 140.143 104.792 140.153 104.686 140.164C104.601 140.174 104.516 140.174 104.442 140.185C104.368 140.196 104.283 140.196 104.209 140.206C104.092 140.217 103.986 140.227 103.87 140.227C103.806 140.238 103.743 140.238 103.679 140.238C103.573 140.249 103.467 140.249 103.361 140.259C103.032 140.28 102.704 140.291 102.386 140.302C102.259 140.302 102.131 140.312 102.004 140.312C100.976 140.333 99.9477 140.291 98.9195 140.217C96.3331 141.086 93.6725 141.786 90.9377 142.305C87.2383 143.005 83.4223 143.376 79.5215 143.376C63.3777 143.376 48.6967 137.069 37.8317 126.776C28.7687 118.201 22.3451 106.848 19.9177 94.0856L18.9319 84.1852L18.8577 83.4432L16.1123 55.968L25.5145 55.0246L37.4183 53.848L41.8067 53.4134L42.0187 53.3922L50.0747 52.5866L64.1621 51.1768L104.569 47.1382L106.647 46.9262L106.679 47.2548L109.435 74.8572L109.466 75.154L109.816 78.6732L110.039 80.8992L111.777 98.3256L111.926 99.7672L112.286 103.403L115.053 131.111L115.127 131.832L115.667 137.143Z" fill="#373740"/>
<path id="Vector_3" fill-rule="evenodd" clip-rule="evenodd" d="M133.401 45.421L133.295 47.329L132.935 53.9434L130.878 91.6476L130.709 94.7746L130.189 104.368L129.5 117.088L125.737 125.96L128.864 128.79L128.801 130.02L128.281 139.591L121.953 133.263C121.826 133.359 121.699 133.465 121.571 133.56C121.455 133.645 121.338 133.74 121.222 133.825C121.222 133.836 121.211 133.836 121.211 133.836C121.084 133.931 120.967 134.016 120.84 134.101C120.692 134.207 120.533 134.313 120.384 134.419C120.31 134.472 120.236 134.525 120.162 134.578C119.685 134.906 119.197 135.214 118.699 135.521C118.529 135.616 118.37 135.722 118.201 135.818C118.073 135.892 117.936 135.966 117.808 136.04C117.745 136.083 117.671 136.115 117.607 136.157C117.512 136.21 117.416 136.263 117.321 136.316C117.204 136.38 117.088 136.443 116.96 136.507C116.674 136.655 116.388 136.804 116.091 136.952C115.964 137.016 115.826 137.079 115.699 137.143H115.688C115.551 137.206 115.413 137.27 115.264 137.334C115.127 137.397 114.978 137.461 114.84 137.524C114.703 137.588 114.554 137.652 114.416 137.705C114.289 137.758 114.151 137.811 114.024 137.864C113.706 137.991 113.378 138.118 113.06 138.245C112.943 138.288 112.826 138.33 112.699 138.372C112.551 138.425 112.413 138.478 112.265 138.521C112.137 138.563 112 138.606 111.862 138.659C111.819 138.669 111.788 138.68 111.745 138.69C111.629 138.733 111.501 138.765 111.385 138.807C111.236 138.849 111.088 138.892 110.95 138.945C110.802 138.987 110.653 139.03 110.505 139.072C110.388 139.104 110.272 139.136 110.145 139.167C110.092 139.178 110.039 139.199 109.975 139.21C109.89 139.231 109.795 139.252 109.71 139.273C109.657 139.284 109.604 139.295 109.562 139.316C109.286 139.39 109.01 139.454 108.724 139.517C108.597 139.549 108.48 139.57 108.353 139.602C108.311 139.613 108.258 139.623 108.215 139.634C108.088 139.655 107.961 139.687 107.834 139.708C107.685 139.74 107.537 139.761 107.389 139.793C107.24 139.814 107.092 139.846 106.954 139.867C106.784 139.899 106.604 139.92 106.435 139.952C106.318 139.973 106.201 139.984 106.095 140.005C105.809 140.047 105.523 140.079 105.237 140.111C105.173 140.121 105.099 140.121 105.035 140.132C104.929 140.143 104.813 140.153 104.707 140.164C104.622 140.174 104.537 140.174 104.463 140.185C104.389 140.196 104.304 140.196 104.23 140.206C104.113 140.217 104.007 140.227 103.891 140.227C103.827 140.238 103.763 140.238 103.7 140.238C103.594 140.249 103.488 140.249 103.382 140.259C103.053 140.28 102.725 140.291 102.407 140.302C102.279 140.302 102.152 140.312 102.025 140.312C100.997 140.333 99.9685 140.291 98.9403 140.217C96.354 141.086 93.6933 141.786 90.9585 142.305C87.2591 143.005 83.4431 143.376 79.5423 143.376C63.3985 143.376 48.7175 137.069 37.8525 126.776L38.2023 120.342V120.299L40.2905 82.0652L41.8487 53.4028L41.9653 51.251L42.5483 40.4602L50.5831 40.8948L110.049 44.1384L116.324 44.4776L127.147 45.0712L131.387 45.3044L133.401 45.421Z" fill="#5A5A69"/>
<path id="Vector_4" fill-rule="evenodd" clip-rule="evenodd" d="M134.725 107.866C134.45 113.802 132.838 119.738 129.595 124.783C129.415 125.08 125.524 125.281 125.334 125.568C131.206 130.412 129.34 129.405 124.062 135.383C122.387 133.772 122.228 132.617 120.14 134.578C111.564 141.181 100.765 139.97 90.9155 142.305C74.2735 137.058 64.3943 117.374 69.9063 101.082C79.8915 66.8542 132.022 72.1966 134.725 107.866Z" fill="#373740"/>
<path id="Vector_5" fill-rule="evenodd" clip-rule="evenodd" d="M109.477 75.154L96.4388 76.4472L86.4854 77.4436L58.2576 80.2632L40.3648 82.0546L40.2482 82.0652L37.5558 82.3302L18.8998 84.1958L18.8256 83.4538L15.8682 53.8586L26.712 52.7774L41.923 51.251L50.2016 50.4242L50.3076 50.4136L90.7148 46.3856L106.445 44.8062L106.689 47.2548L109.456 74.8572L109.477 75.154Z" fill="#373740"/>
<path id="Vector_6" fill-rule="evenodd" clip-rule="evenodd" d="M42.1454 51.2298L37.4072 51.7068L37.7888 126.755L42.1454 51.2298Z" fill="#373740"/>
<path id="Vector_7" fill-rule="evenodd" clip-rule="evenodd" d="M133.306 47.329L132.946 53.9434L130.89 91.6476L130.19 104.368L128.907 104.304L111.258 103.339L105.1 103L74.4975 101.336L68.8053 101.018L39.3691 99.4174H39.2949L40.2489 82.0652L41.9237 51.251L42.8459 34.344L43.2805 26.4682L55.1419 27.1148L109.743 30.0934L116.951 30.4856L133.306 47.329Z" fill="#5A5A69"/>
<path id="Vector_8" d="M50.6886 38.3021L50.3682 44.1762L109.829 47.4194L110.15 41.5453L50.6886 38.3021Z" fill="#373740"/>
<path id="Vector_9" d="M50.2042 50.4147L49.8838 56.2888L85.9121 58.2543L86.2325 52.3801L50.2042 50.4147Z" fill="#373740"/>
<path id="Vector_10" d="M49.4796 73.8946L49.1592 79.7687L106.43 82.8924L106.75 77.0183L49.4796 73.8946Z" fill="#373740"/>
<path id="Vector_11" d="M49.0636 87.968L48.7432 93.8421L65.9528 94.7808L66.2732 88.9066L49.0636 87.968Z" fill="#373740"/>
<path id="Vector_12" fill-rule="evenodd" clip-rule="evenodd" d="M140.365 145.994C138.796 147.563 136.241 147.563 134.662 145.994L128.259 139.591L120.712 132.044C119.663 130.995 119.313 129.5 119.673 128.165C119.716 127.984 119.779 127.815 119.854 127.645C120.044 127.179 120.341 126.734 120.723 126.352C121.104 125.97 121.55 125.684 122.016 125.483C122.249 125.387 122.493 125.313 122.737 125.26C124.019 124.995 125.419 125.356 126.415 126.352L127.623 127.56L128.842 128.79L140.354 140.302C141.944 141.87 141.944 144.425 140.365 145.994Z" fill="#373740"/>
<path id="Vector_13" fill-rule="evenodd" clip-rule="evenodd" d="M134.684 107.41C133.56 148.877 73.4581 151.675 68.4337 110.558C65.0947 64.501 133.56 61.0666 134.684 107.41Z" fill="#373740"/>
<path id="Vector_14" d="M101.474 134.673C116.701 134.673 129.045 122.329 129.045 107.102C129.045 91.8756 116.701 79.5318 101.474 79.5318C86.2471 79.5318 73.9033 91.8756 73.9033 107.102C73.9033 122.329 86.2471 134.673 101.474 134.673Z" fill="#28282F"/>
<path id="Vector_15" d="M111.936 99.7566C111.926 99.2584 111.883 98.7814 111.788 98.315C111.449 96.4706 110.527 94.8594 109 93.4602C107.082 91.7112 104.527 90.8102 101.315 90.8102C98.273 90.8102 95.835 91.6476 93.98 93.2906C92.6338 94.4778 91.6692 96.036 91.0968 97.9758C90.5986 99.6506 91.7434 101.368 93.4712 101.569C94.8386 101.728 96.1318 100.88 96.5134 99.5658C96.8526 98.421 97.3402 97.5306 98.008 96.8946C98.909 96.0572 100.033 95.6438 101.368 95.6438C102.767 95.6438 103.944 96.0996 104.909 97.0324C105.852 97.944 106.329 99.004 106.329 100.212C106.329 100.848 106.181 101.442 105.873 101.983C105.704 102.279 105.439 102.619 105.078 103C104.675 103.435 104.167 103.922 103.541 104.474C102.206 105.65 101.294 106.551 100.775 107.166C100.033 108.067 99.492 108.957 99.1634 109.837C98.7182 110.982 98.485 112.349 98.485 113.929C98.485 115.031 99.386 115.932 100.488 115.932H101.877C102.948 115.932 103.827 115.095 103.88 114.024C103.923 113.166 104.008 112.498 104.124 112.053C104.273 111.501 104.495 111.014 104.813 110.59C105.163 110.113 105.916 109.371 107.06 108.353C108.958 106.668 110.23 105.226 110.876 104.05C111.004 103.816 111.12 103.583 111.226 103.339C111.682 102.29 111.915 101.166 111.915 99.9686C111.936 99.8944 111.936 99.8308 111.936 99.7566ZM101.294 117.384C99.6404 117.384 98.2942 118.731 98.2942 120.384C98.2942 122.048 99.6404 123.384 101.294 123.384C102.958 123.384 104.294 122.038 104.294 120.384C104.294 118.731 102.948 117.384 101.294 117.384Z" fill="#5A5A69"/>
<path id="Vector_16" fill-rule="evenodd" clip-rule="evenodd" d="M133.378 45.4513L128.673 47.1594L116.176 46.693L116.748 34.7998L116.95 30.4856L133.378 45.4513Z" fill="#5A5A69"/>
</g>
</svg>
