<svg width="21" height="20" viewBox="0 0 21 20" fill="none" xmlns="http://www.w3.org/2000/svg">
<g id="Stack">
<path id="Vector" d="M17.5623 13.2101L10.3748 17.4015L3.18726 13.2101C3.04495 13.1393 2.88099 13.1253 2.72875 13.1711C2.57651 13.2169 2.44743 13.3189 2.36778 13.4565C2.28814 13.5941 2.26392 13.7569 2.30005 13.9117C2.33618 14.0665 2.42994 14.2017 2.56226 14.2898L10.0623 18.6648C10.1578 18.7206 10.2665 18.7499 10.3771 18.7499C10.4877 18.7499 10.5964 18.7206 10.6919 18.6648L18.1919 14.2898C18.264 14.2491 18.3272 14.1944 18.3779 14.129C18.4287 14.0636 18.4659 13.9888 18.4875 13.9089C18.5091 13.829 18.5146 13.7456 18.5037 13.6636C18.4928 13.5815 18.4658 13.5025 18.4241 13.431C18.3824 13.3595 18.3269 13.297 18.2608 13.2471C18.1948 13.1972 18.1195 13.161 18.0393 13.1404C17.9592 13.1199 17.8757 13.1155 17.7938 13.1274C17.7119 13.1394 17.6332 13.1675 17.5623 13.2101Z" fill="#FBFBFB"/>
<path id="Vector_2" d="M17.5623 9.46013L10.3748 13.6515L3.18726 9.46013C3.04495 9.38928 2.88099 9.37532 2.72875 9.42109C2.57651 9.46686 2.44743 9.56892 2.36778 9.7065C2.28814 9.84409 2.26392 10.0069 2.30005 10.1617C2.33618 10.3165 2.42994 10.4517 2.56226 10.5398L10.0623 14.9148C10.1578 14.9706 10.2665 14.9999 10.3771 14.9999C10.4877 14.9999 10.5964 14.9706 10.6919 14.9148L18.1919 10.5398C18.264 10.4991 18.3272 10.4444 18.3779 10.379C18.4287 10.3136 18.4659 10.2388 18.4875 10.1589C18.5091 10.079 18.5146 9.99563 18.5037 9.91358C18.4928 9.83154 18.4658 9.75247 18.4241 9.68098C18.3824 9.60948 18.3269 9.54698 18.2608 9.4971C18.1948 9.44722 18.1195 9.41096 18.0393 9.39041C17.9592 9.36987 17.8757 9.36545 17.7938 9.37742C17.7119 9.38939 17.6332 9.4175 17.5623 9.46013Z" fill="#FBFBFB"/>
<path id="Vector_3" d="M2.56249 6.7899L10.0625 11.1649C10.1581 11.2206 10.2667 11.25 10.3773 11.25C10.488 11.25 10.5966 11.2206 10.6922 11.1649L18.1922 6.7899C18.2865 6.73486 18.3648 6.65605 18.4192 6.56133C18.4736 6.46661 18.5022 6.35929 18.5022 6.25006C18.5022 6.14083 18.4736 6.03351 18.4192 5.93879C18.3648 5.84407 18.2865 5.76526 18.1922 5.71022L10.6922 1.33522C10.5966 1.27949 10.488 1.25012 10.3773 1.25012C10.2667 1.25012 10.1581 1.27949 10.0625 1.33522L2.56249 5.71022C2.46814 5.76526 2.38987 5.84407 2.33547 5.93879C2.28107 6.03351 2.25244 6.14083 2.25244 6.25006C2.25244 6.35929 2.28107 6.46661 2.33547 6.56133C2.38987 6.65605 2.46814 6.73486 2.56249 6.7899Z" fill="#FBFBFB"/>
</g>
</svg>
