<svg width="20" height="20" viewBox="0 0 20 20" fill="none" xmlns="http://www.w3.org/2000/svg">
    <path d="M18.797 13.67L9.97176 18.4552L1.14648 13.67C0.972312 13.5923 0.773052 13.5785 0.588467 13.6315C0.403881 13.6844 0.247549 13.8002 0.150673 13.9558C0.0537968 14.1113 0.0235025 14.2951 0.065837 14.4705C0.108172 14.6459 0.220021 14.8 0.37906 14.902L9.58805 19.9015C9.70405 19.966 9.83665 20 9.97176 20C10.1069 20 10.2395 19.966 10.3555 19.9015L19.5645 14.902C19.6599 14.8594 19.7448 14.7989 19.8139 14.7243C19.883 14.6497 19.9347 14.5626 19.9659 14.4685C19.9971 14.3744 20.007 14.2753 19.9951 14.1774C19.9831 14.0795 19.9496 13.985 19.8965 13.8998C19.8434 13.8146 19.772 13.7406 19.6867 13.6823C19.6014 13.624 19.504 13.5828 19.4008 13.5612C19.2975 13.5396 19.1906 13.5381 19.0867 13.5569C18.9828 13.5756 18.8842 13.6141 18.797 13.67Z" fill="white"/>
    <path d="M18.797 9.38474L9.97176 14.1699L1.14648 9.38474C0.972312 9.307 0.773052 9.29324 0.588467 9.34621C0.403881 9.39918 0.247549 9.51499 0.150673 9.67051C0.0537968 9.82604 0.0235025 10.0098 0.065837 10.1852C0.108172 10.3606 0.220021 10.5147 0.37906 10.6168L9.58805 15.6162C9.70405 15.6807 9.83665 15.7148 9.97176 15.7148C10.1069 15.7148 10.2395 15.6807 10.3555 15.6162L19.5645 10.6168C19.6599 10.5742 19.7448 10.5137 19.8139 10.4391C19.883 10.3645 19.9347 10.2774 19.9659 10.1832C19.9971 10.0891 20.007 9.99002 19.9951 9.89216C19.9831 9.7943 19.9496 9.6998 19.8965 9.61459C19.8434 9.52938 19.772 9.45531 19.6867 9.39703C19.6014 9.33875 19.504 9.29753 19.4008 9.27594C19.2975 9.25436 19.1906 9.25288 19.0867 9.2716C18.9828 9.29033 18.8842 9.32885 18.797 9.38474Z" fill="white"/>
    <path d="M0.37906 6.3315L9.58805 11.331C9.70405 11.3954 9.83665 11.4295 9.97176 11.4295C10.1069 11.4295 10.2395 11.3954 10.3555 11.331L19.5645 6.3315C19.6799 6.26849 19.7756 6.17849 19.842 6.07043C19.9085 5.96238 19.9435 5.84002 19.9435 5.7155C19.9435 5.59098 19.9085 5.46862 19.842 5.36056C19.7756 5.25251 19.6799 5.16251 19.5645 5.09949L10.3555 0.100033C10.2398 0.0346035 10.1071 0 9.97176 0C9.83643 0 9.70369 0.0346035 9.58805 0.100033L0.37906 5.09949C0.263659 5.16251 0.167966 5.25251 0.101474 5.36056C0.0349813 5.46862 0 5.59098 0 5.7155C0 5.84002 0.0349813 5.96238 0.101474 6.07043C0.167966 6.17849 0.263659 6.26849 0.37906 6.3315Z" fill="white"/>
</svg>
