<svg width="21" height="20" viewBox="0 0 21 20" fill="none" xmlns="http://www.w3.org/2000/svg">
<g id="House">
<path id="Vector" d="M17.625 9.37497V16.875C17.625 17.0407 17.5592 17.1997 17.4419 17.3169C17.3247 17.4341 17.1658 17.5 17 17.5H12.625C12.4592 17.5 12.3003 17.4341 12.1831 17.3169C12.0658 17.1997 12 17.0407 12 16.875V12.8125C12 12.7296 11.9671 12.6501 11.9085 12.5915C11.8499 12.5329 11.7704 12.5 11.6875 12.5H8.5625C8.47962 12.5 8.40013 12.5329 8.34153 12.5915C8.28292 12.6501 8.25 12.7296 8.25 12.8125V16.875C8.25 17.0407 8.18415 17.1997 8.06694 17.3169C7.94973 17.4341 7.79076 17.5 7.625 17.5H3.25C3.08424 17.5 2.92527 17.4341 2.80806 17.3169C2.69085 17.1997 2.625 17.0407 2.625 16.875V9.37497C2.62515 9.04351 2.75695 8.72568 2.99141 8.49138L9.24141 2.24138C9.4758 2.00713 9.79362 1.87555 10.125 1.87555C10.4564 1.87555 10.7742 2.00713 11.0086 2.24138L17.2586 8.49138C17.493 8.72568 17.6248 9.04351 17.625 9.37497Z" fill="#FBFBFB"/>
</g>
</svg>
