<svg width="21" height="20" viewBox="0 0 21 20" fill="none" xmlns="http://www.w3.org/2000/svg">
<g id="House">
<path id="Vector" d="M8.25 16.875V11.875H12V16.875H17V9.375C17.0001 9.2929 16.984 9.2116 16.9526 9.13572C16.9212 9.05985 16.8752 8.9909 16.8172 8.93282L10.5672 2.68282C10.5091 2.62471 10.4402 2.57861 10.3643 2.54715C10.2885 2.5157 10.2071 2.49951 10.125 2.49951C10.0429 2.49951 9.96154 2.5157 9.88566 2.54715C9.80979 2.57861 9.74086 2.62471 9.68281 2.68282L3.43281 8.93282C3.37479 8.9909 3.32878 9.05985 3.29741 9.13572C3.26605 9.2116 3.24994 9.2929 3.25 9.375V16.875H8.25Z" stroke="#A8A8B5" stroke-width="1.5" stroke-linecap="round" stroke-linejoin="round"/>
</g>
</svg>
