<svg width="19" height="18" viewBox="0 0 19 18" fill="none" xmlns="http://www.w3.org/2000/svg">
<g id="SketchLogo">
<path id="Vector" d="M17.9221 6.94195L13.9846 2.44195C13.9319 2.38182 13.8671 2.3336 13.7943 2.3005C13.7216 2.26741 13.6426 2.25019 13.5627 2.25H5.6877C5.60778 2.25019 5.52882 2.26741 5.45607 2.3005C5.38333 2.3336 5.31847 2.38182 5.26582 2.44195L1.32832 6.94195C1.23646 7.04683 1.18683 7.18208 1.18904 7.32148C1.19124 7.46088 1.24514 7.59449 1.34028 7.69641L9.21528 16.1339C9.26791 16.1903 9.33158 16.2353 9.40235 16.2661C9.47311 16.2968 9.54944 16.3127 9.6266 16.3127C9.70376 16.3127 9.7801 16.2968 9.85086 16.2661C9.92162 16.2353 9.9853 16.1903 10.0379 16.1339L17.9129 7.69641C18.0077 7.59414 18.0611 7.46034 18.0628 7.32094C18.0644 7.18154 18.0143 7.04648 17.9221 6.94195ZM16.2606 6.75H13.2814L10.7502 3.375H13.3075L16.2606 6.75ZM5.8691 7.875L7.98762 13.1716L3.04465 7.875H5.8691ZM13.3813 7.875H16.2057L11.2628 13.1716L13.3813 7.875ZM5.94293 3.375H8.5002L5.96895 6.75H2.98981L5.94293 3.375Z" fill="#FBFBFB"/>
</g>
</svg>
