<svg width="21" height="20" viewBox="0 0 21 20" fill="none" xmlns="http://www.w3.org/2000/svg">
    <path fill-rule="evenodd" clip-rule="evenodd" d="M5.43853 0.608964C6.40914 0.206926 7.44943 0 8.5 0C9.55058 0 10.5909 0.206926 11.5615 0.608964C12.5321 1.011 13.414 1.60028 14.1569 2.34315C14.8997 3.08601 15.489 3.96793 15.891 4.93853C16.2931 5.90914 16.5 6.94943 16.5 8C16.5 9.05057 16.2931 10.0909 15.891 11.0615C15.6172 11.7226 15.2565 12.3425 14.8196 12.9054L20.2071 18.2929C20.5976 18.6834 20.5976 19.3166 20.2071 19.7071C19.8166 20.0976 19.1834 20.0976 18.7929 19.7071L13.4054 14.3196C12.8425 14.7565 12.2226 15.1172 11.5615 15.391C10.5909 15.7931 9.55057 16 8.5 16C7.44943 16 6.40914 15.7931 5.43853 15.391C4.46793 14.989 3.58601 14.3997 2.84315 13.6569C2.10028 12.914 1.511 12.0321 1.10896 11.0615C0.706926 10.0909 0.5 9.05058 0.5 8C0.5 6.94942 0.706926 5.90914 1.10896 4.93853C1.511 3.96793 2.10028 3.08601 2.84315 2.34315C3.58601 1.60028 4.46793 1.011 5.43853 0.608964ZM8.5 2C7.71207 2 6.93185 2.15519 6.2039 2.45672C5.47595 2.75825 4.81451 3.20021 4.25736 3.75736C3.70021 4.31451 3.25825 4.97595 2.95672 5.7039C2.65519 6.43185 2.5 7.21207 2.5 8C2.5 8.78793 2.65519 9.56815 2.95672 10.2961C3.25825 11.0241 3.70021 11.6855 4.25736 12.2426C4.81451 12.7998 5.47595 13.2417 6.2039 13.5433C6.93185 13.8448 7.71207 14 8.5 14C9.28793 14 10.0681 13.8448 10.7961 13.5433C11.5241 13.2417 12.1855 12.7998 12.7426 12.2426C13.2998 11.6855 13.7417 11.0241 14.0433 10.2961C14.3448 9.56815 14.5 8.78793 14.5 8C14.5 7.21207 14.3448 6.43185 14.0433 5.7039C13.7417 4.97595 13.2998 4.31451 12.7426 3.75736C12.1855 3.20021 11.5241 2.75825 10.7961 2.45672C10.0681 2.15519 9.28793 2 8.5 2Z" fill="white"/>
</svg>
