<svg width="21" height="20" viewBox="0 0 21 20" fill="none" xmlns="http://www.w3.org/2000/svg">
<g id="Gear">
<path id="Vector" d="M17.7498 10.1685C17.7529 10.056 17.7529 9.94354 17.7498 9.83104L18.9154 8.37479C18.9765 8.29833 19.0188 8.20859 19.0389 8.11278C19.059 8.01698 19.0563 7.9178 19.031 7.82323C18.8396 7.10507 18.5538 6.41546 18.181 5.77245C18.1322 5.68832 18.0644 5.61676 17.983 5.56346C17.9016 5.51015 17.8089 5.47658 17.7123 5.46542L15.8592 5.25917C15.7821 5.17792 15.704 5.09979 15.6248 5.02479L15.406 3.16698C15.3948 3.07027 15.3611 2.97753 15.3077 2.89614C15.2542 2.81476 15.1825 2.74699 15.0982 2.69823C14.4553 2.32577 13.7656 2.04045 13.0474 1.84979C12.9529 1.82453 12.8537 1.82183 12.7579 1.84191C12.6621 1.86199 12.5723 1.9043 12.4959 1.96542L11.0435 3.12479C10.931 3.12479 10.8185 3.12479 10.706 3.12479L9.24979 1.96151C9.17333 1.90039 9.08359 1.85809 8.98778 1.838C8.89198 1.81792 8.7928 1.82062 8.69823 1.84589C7.98007 2.03731 7.29046 2.32314 6.64745 2.69589C6.56332 2.74473 6.49176 2.81255 6.43846 2.89392C6.38515 2.9753 6.35158 3.068 6.34042 3.16464L6.13417 5.02089C6.05292 5.09849 5.97479 5.17661 5.89979 5.25526L4.04198 5.46854C3.94527 5.47979 3.85253 5.51348 3.77114 5.56692C3.68976 5.62037 3.62199 5.69208 3.57323 5.77635C3.20084 6.41945 2.91529 7.10904 2.72401 7.82714C2.69885 7.92176 2.69628 8.02098 2.7165 8.11679C2.73672 8.21259 2.77916 8.30231 2.84042 8.3787L3.99979 9.83104C3.99979 9.94354 3.99979 10.056 3.99979 10.1685L2.83651 11.6248C2.77539 11.7013 2.73309 11.791 2.713 11.8868C2.69292 11.9826 2.69562 12.0818 2.72089 12.1764C2.91231 12.8945 3.19814 13.5841 3.57089 14.2271C3.61973 14.3113 3.68755 14.3828 3.76892 14.4361C3.8503 14.4894 3.943 14.523 4.03964 14.5342L5.89276 14.7404C5.97037 14.8217 6.04849 14.8998 6.12714 14.9748L6.34354 16.8326C6.35479 16.9293 6.38848 17.0221 6.44192 17.1034C6.49537 17.1848 6.56708 17.2526 6.65135 17.3014C7.29445 17.6737 7.98404 17.9593 8.70214 18.1506C8.79676 18.1757 8.89598 18.1783 8.99179 18.1581C9.08759 18.1379 9.17731 18.0954 9.2537 18.0342L10.706 16.8748C10.8185 16.8779 10.931 16.8779 11.0435 16.8748L12.4998 18.0404C12.5763 18.1015 12.666 18.1438 12.7618 18.1639C12.8576 18.184 12.9568 18.1813 13.0514 18.156C13.7696 17.965 14.4593 17.6791 15.1021 17.306C15.1863 17.2572 15.2578 17.1894 15.3111 17.108C15.3644 17.0266 15.398 16.9339 15.4092 16.8373L15.6154 14.9842C15.6967 14.9071 15.7748 14.829 15.8498 14.7498L17.7076 14.531C17.8043 14.5198 17.8971 14.4861 17.9784 14.4327C18.0598 14.3792 18.1276 14.3075 18.1764 14.2232C18.5487 13.5801 18.8343 12.8905 19.0256 12.1724C19.0507 12.0778 19.0533 11.9786 19.0331 11.8828C19.0129 11.787 18.9704 11.6973 18.9092 11.6209L17.7498 10.1685ZM10.8748 13.1248C10.2567 13.1248 9.65254 12.9415 9.13864 12.5981C8.62473 12.2548 8.22419 11.7667 7.98767 11.1957C7.75114 10.6247 7.68926 9.99633 7.80984 9.39014C7.93042 8.78394 8.22804 8.22712 8.66508 7.79008C9.10212 7.35304 9.65894 7.05542 10.2651 6.93484C10.8713 6.81426 11.4997 6.87614 12.0707 7.11267C12.6417 7.34919 13.1298 7.74973 13.4731 8.26364C13.8165 8.77754 13.9998 9.38173 13.9998 9.99979C13.9998 10.8286 13.6706 11.6235 13.0845 12.2095C12.4985 12.7956 11.7036 13.1248 10.8748 13.1248Z" fill="#FBFBFB"/>
</g>
</svg>
