<svg width="20" height="20" viewBox="0 0 20 20" fill="none" xmlns="http://www.w3.org/2000/svg">
    <path d="M19.8519 12.0663L18.4775 10.2398C18.4867 10.0738 18.4775 9.89853 18.4775 9.76938L19.8519 7.93368C19.9203 7.84434 19.9667 7.74022 19.9876 7.62968C20.0084 7.51914 20.003 7.40526 19.9719 7.29718C19.7394 6.44672 19.4016 5.62862 18.9664 4.86187C18.9102 4.76447 18.833 4.68081 18.7405 4.61698C18.6479 4.55315 18.5423 4.51076 18.4313 4.49288L16.1713 4.17002L15.83 3.82871L15.5071 1.56867C15.4891 1.45889 15.4476 1.35428 15.3855 1.26196C15.3234 1.16964 15.2422 1.09176 15.1474 1.03364C14.3766 0.600001 13.5556 0.262329 12.7028 0.0281494C12.5947 -0.00300586 12.4809 -0.00838615 12.3703 0.0124402C12.2598 0.0332666 12.1557 0.0797196 12.0663 0.14807L10.2398 1.51332H9.76016L7.93368 0.14807C7.84434 0.0797196 7.74022 0.0332666 7.62968 0.0124402C7.51914 -0.00838615 7.40526 -0.00300586 7.29718 0.0281494C6.44672 0.260629 5.62862 0.598405 4.86187 1.03364C4.76447 1.08979 4.68081 1.16695 4.61698 1.2595C4.55315 1.35205 4.51076 1.45767 4.49288 1.56867L4.17002 3.82871L3.82871 4.17002L1.56867 4.49288C1.45767 4.51076 1.35205 4.55315 1.2595 4.61698C1.16695 4.68081 1.08979 4.76447 1.03364 4.86187C0.598405 5.62862 0.260629 6.44672 0.0281494 7.29718C-0.00300586 7.40526 -0.00838615 7.51914 0.0124402 7.62968C0.0332666 7.74022 0.0797196 7.84434 0.14807 7.93368L1.52254 9.76016V10.2306L0.14807 12.0663C0.0797196 12.1557 0.0332666 12.2598 0.0124402 12.3703C-0.00838615 12.4809 -0.00300586 12.5947 0.0281494 12.7028C0.260629 13.5533 0.598405 14.3714 1.03364 15.1381C1.08979 15.2355 1.16695 15.3192 1.2595 15.383C1.35205 15.4468 1.45767 15.4892 1.56867 15.5071L3.82871 15.83L4.17002 16.1713L4.49288 18.4313C4.51076 18.5423 4.55315 18.6479 4.61698 18.7405C4.68081 18.833 4.76447 18.9102 4.86187 18.9664C5.62862 19.4016 6.44672 19.7394 7.29718 19.9719C7.36014 19.9901 7.42535 19.9994 7.49089 19.9995C7.6509 20.0016 7.80692 19.9496 7.93368 19.8519L9.76016 18.4867H10.2398L12.0663 19.8519C12.1557 19.9203 12.2598 19.9667 12.3703 19.9876C12.4809 20.0084 12.5947 20.003 12.7028 19.9719C13.5539 19.741 14.3722 19.4032 15.1381 18.9664C15.2355 18.9102 15.3192 18.833 15.383 18.7405C15.4468 18.6479 15.4892 18.5423 15.5071 18.4313L15.83 16.1621C15.9407 16.0514 16.0698 15.9315 16.1621 15.83L18.4313 15.5071C18.5423 15.4892 18.6479 15.4468 18.7405 15.383C18.833 15.3192 18.9102 15.2355 18.9664 15.1381C19.4016 14.3714 19.7394 13.5533 19.9719 12.7028C20.003 12.5947 20.0084 12.4809 19.9876 12.3703C19.9667 12.2598 19.9203 12.1557 19.8519 12.0663ZM10 14.0588C9.19724 14.0588 8.4125 13.8208 7.74503 13.3748C7.07755 12.9288 6.55732 12.2949 6.25011 11.5533C5.94291 10.8116 5.86253 9.9955 6.01914 9.20816C6.17575 8.42082 6.56232 7.6976 7.12996 7.12996C7.6976 6.56232 8.42082 6.17575 9.20816 6.01914C9.9955 5.86253 10.8116 5.94291 11.5533 6.25011C12.2949 6.55732 12.9288 7.07755 13.3748 7.74503C13.8208 8.4125 14.0588 9.19724 14.0588 10C14.0588 11.0765 13.6312 12.1089 12.87 12.87C12.1089 13.6312 11.0765 14.0588 10 14.0588Z" fill="white"/>
</svg>
