<svg width="21" height="20" viewBox="0 0 21 20" fill="none" xmlns="http://www.w3.org/2000/svg">
<g id="Gear">
<path id="Vector" d="M10.875 13.125C12.6009 13.125 14 11.7259 14 10C14 8.27411 12.6009 6.875 10.875 6.875C9.14911 6.875 7.75 8.27411 7.75 10C7.75 11.7259 9.14911 13.125 10.875 13.125Z" stroke="#A8A8B5" stroke-width="1.5" stroke-linecap="round" stroke-linejoin="round"/>
<path id="Vector_2" d="M4.11191 13.9133C3.76658 13.3185 3.50201 12.6803 3.3252 12.0156L4.63613 10.375C4.62129 10.1242 4.62129 9.87271 4.63613 9.62189L3.32598 7.98126C3.50249 7.31648 3.76652 6.67809 4.11113 6.08282L6.19785 5.84845C6.36449 5.66071 6.54214 5.48305 6.72988 5.31642L6.96426 3.23048C7.55866 2.88751 8.19601 2.62505 8.85957 2.45001L10.5002 3.76095C10.751 3.74611 11.0025 3.74611 11.2533 3.76095L12.8939 2.45079C13.5587 2.62731 14.1971 2.89134 14.7924 3.23595L15.0268 5.32267C15.2145 5.4893 15.3922 5.66696 15.5588 5.8547L17.6447 6.08907C17.9901 6.68389 18.2546 7.32205 18.4314 7.98673L17.1205 9.62736C17.1354 9.87818 17.1354 10.1297 17.1205 10.3805L18.4307 12.0211C18.2554 12.6857 17.9927 13.3241 17.6494 13.9195L15.5627 14.1539C15.3961 14.3417 15.2184 14.5193 15.0307 14.6859L14.7963 16.7719C14.2015 17.1172 13.5633 17.3818 12.8986 17.5586L11.258 16.2477C11.0072 16.2625 10.7557 16.2625 10.5049 16.2477L8.86426 17.5578C8.19967 17.3825 7.56128 17.1198 6.96582 16.7766L6.73145 14.6899C6.54371 14.5232 6.36605 14.3456 6.19941 14.1578L4.11191 13.9133Z" stroke="#A8A8B5" stroke-width="1.5" stroke-linecap="round" stroke-linejoin="round"/>
</g>
</svg>
