<svg width="20" height="20" viewBox="0 0 20 20" fill="none" xmlns="http://www.w3.org/2000/svg">
<path d="M13.7499 10C13.7531 12.4437 13.2772 14.8644 12.3491 17.125Z" fill="#A999F8"/>
<path d="M13.7499 10C13.7531 12.4437 13.2772 14.8644 12.3491 17.125" stroke="#A999F8" stroke-width="1.5" stroke-linecap="round" stroke-linejoin="round"/>
<path d="M12.7945 7.50011C12.2882 6.93424 11.622 6.53543 10.884 6.35642C10.1461 6.17741 9.37117 6.22665 8.66182 6.49762C7.95247 6.7686 7.34209 7.24853 6.91143 7.87394C6.48077 8.49935 6.25013 9.24077 6.25 10.0001C6.25262 11.9061 5.76859 13.7812 4.84375 15.4478" stroke="#A999F8" stroke-width="1.5" stroke-linecap="round" stroke-linejoin="round"/>
<path d="M7.5 2.92667C8.63143 2.52796 9.84194 2.40627 11.0301 2.57178C12.2182 2.7373 13.3494 3.18521 14.3288 3.87796C15.3082 4.57072 16.1072 5.48815 16.659 6.55335C17.2107 7.61855 17.4991 8.80049 17.5 10.0001C17.501 11.6824 17.3139 13.3594 16.9422 15.0001" stroke="#A999F8" stroke-width="1.5" stroke-linecap="round" stroke-linejoin="round"/>
<path d="M1.81934 13.125C2.26902 12.1446 2.50116 11.0786 2.4998 10C2.49877 8.94466 2.72097 7.90103 3.15184 6.93764C3.5827 5.97426 4.21247 5.11291 4.9998 4.41016" stroke="#A999F8" stroke-width="1.5" stroke-linecap="round" stroke-linejoin="round"/>
<path d="M8.63848 16.25C8.48223 16.5953 8.31139 16.9339 8.12598 17.2656" stroke="#A999F8" stroke-width="1.5" stroke-linecap="round" stroke-linejoin="round"/>
<path d="M10 10C10.0022 11.2647 9.84472 12.5247 9.53125 13.75" stroke="#A999F8" stroke-width="1.5" stroke-linecap="round" stroke-linejoin="round"/>
</svg>
