<svg width="20" height="20" viewBox="0 0 20 20" fill="none" xmlns="http://www.w3.org/2000/svg">
<g id="Numpad">
<path id="Vector" d="M6.03125 3.75C6.03125 4.31954 5.56954 4.78125 5 4.78125C4.43046 4.78125 3.96875 4.31954 3.96875 3.75C3.96875 3.18046 4.43046 2.71875 5 2.71875C5.56954 2.71875 6.03125 3.18046 6.03125 3.75Z" fill="#A999F8" stroke="#A999F8" stroke-width="0.125"/>
<path id="Vector_2" d="M11.0312 3.75C11.0312 4.31954 10.5695 4.78125 10 4.78125C9.43046 4.78125 8.96875 4.31954 8.96875 3.75C8.96875 3.18046 9.43046 2.71875 10 2.71875C10.5695 2.71875 11.0312 3.18046 11.0312 3.75Z" fill="#A999F8" stroke="#A999F8" stroke-width="0.125"/>
<path id="Vector_3" d="M16.0312 3.75C16.0312 4.31954 15.5695 4.78125 15 4.78125C14.4305 4.78125 13.9688 4.31954 13.9688 3.75C13.9688 3.18046 14.4305 2.71875 15 2.71875C15.5695 2.71875 16.0312 3.18046 16.0312 3.75Z" fill="#A999F8" stroke="#A999F8" stroke-width="0.125"/>
<path id="Vector_4" d="M6.03125 8.125C6.03125 8.69454 5.56954 9.15625 5 9.15625C4.43046 9.15625 3.96875 8.69454 3.96875 8.125C3.96875 7.55546 4.43046 7.09375 5 7.09375C5.56954 7.09375 6.03125 7.55546 6.03125 8.125Z" fill="#A999F8" stroke="#A999F8" stroke-width="0.125"/>
<path id="Vector_5" d="M11.0312 8.125C11.0312 8.69454 10.5695 9.15625 10 9.15625C9.43046 9.15625 8.96875 8.69454 8.96875 8.125C8.96875 7.55546 9.43046 7.09375 10 7.09375C10.5695 7.09375 11.0312 7.55546 11.0312 8.125Z" fill="#A999F8" stroke="#A999F8" stroke-width="0.125"/>
<path id="Vector_6" d="M16.0312 8.125C16.0312 8.69454 15.5695 9.15625 15 9.15625C14.4305 9.15625 13.9688 8.69454 13.9688 8.125C13.9688 7.55546 14.4305 7.09375 15 7.09375C15.5695 7.09375 16.0312 7.55546 16.0312 8.125Z" fill="#A999F8" stroke="#A999F8" stroke-width="0.125"/>
<path id="Vector_7" d="M5 13.5938C5.60406 13.5938 6.09375 13.1041 6.09375 12.5C6.09375 11.8959 5.60406 11.4062 5 11.4062C4.39594 11.4062 3.90625 11.8959 3.90625 12.5C3.90625 13.1041 4.39594 13.5938 5 13.5938Z" fill="#A999F8"/>
<path id="Vector_8" d="M10 13.5938C10.6041 13.5938 11.0938 13.1041 11.0938 12.5C11.0938 11.8959 10.6041 11.4062 10 11.4062C9.39594 11.4062 8.90625 11.8959 8.90625 12.5C8.90625 13.1041 9.39594 13.5938 10 13.5938Z" fill="#A999F8"/>
<path id="Vector_9" d="M10 17.9688C10.6041 17.9688 11.0938 17.4791 11.0938 16.875C11.0938 16.2709 10.6041 15.7812 10 15.7812C9.39594 15.7812 8.90625 16.2709 8.90625 16.875C8.90625 17.4791 9.39594 17.9688 10 17.9688Z" fill="#A999F8"/>
<path id="Vector_10" d="M15 13.5938C15.6041 13.5938 16.0938 13.1041 16.0938 12.5C16.0938 11.8959 15.6041 11.4062 15 11.4062C14.3959 11.4062 13.9062 11.8959 13.9062 12.5C13.9062 13.1041 14.3959 13.5938 15 13.5938Z" fill="#A999F8"/>
</g>
</svg>
